<svg width="188" height="60" viewBox="0 0 188 60" fill="none" xmlns="http://www.w3.org/2000/svg">
<g clip-path="url(#clip0_5_18)">
<path d="M18.9217 45.5255C16.657 45.5843 14.7707 44.8249 13.1815 43.2864C13.0047 43.1153 12.7219 42.9938 12.4747 42.9646C9.74597 42.6425 7.73592 41.2776 6.67654 38.7436C5.60666 36.1846 5.99651 33.7334 7.82655 31.6426C8.55555 30.8097 9.56175 30.2194 10.3916 29.5586C10.482 28.5231 10.4333 27.3841 10.7025 26.326C11.424 23.4903 14.1381 21.5485 17.0552 21.6695C17.5051 21.6882 17.7149 21.5741 17.907 21.1619C20.4523 15.6983 26.6258 13.239 32.2203 15.5301C34.7186 16.5532 36.6332 18.3126 37.8463 20.7638C38.0137 21.102 38.1667 21.2794 38.5915 21.2513C40.9508 21.0955 42.8185 22.0344 44.2747 23.8676C44.3802 24.0004 44.5921 24.0914 44.7677 24.1193C48.9027 24.7754 51.8492 27.0265 53.3573 30.9054C54.9063 34.8893 54.2188 38.6452 51.4169 41.8773C47.737 46.1224 41.558 46.7573 37.003 43.476C36.8258 43.3484 36.645 43.2259 36.4375 43.0813C34.7327 44.6893 32.7177 45.5309 30.3767 45.5441C28.0352 45.5574 26.0116 44.7344 24.2772 43.1344C22.7846 44.6029 21.0569 45.4652 18.9217 45.5255ZM30.8773 23.7845C30.6228 23.5464 30.3683 23.3083 30.1018 23.0591C28.2436 24.9819 26.4366 26.8472 24.6359 28.7186C24.2247 29.1459 24.1997 29.637 24.4637 30.1544C25.0312 31.2662 26.1852 31.4333 27.0414 30.5215C28.0896 29.4051 29.132 28.2832 30.2617 27.0729C30.4171 27.2738 30.5251 27.4448 30.663 27.5867C31.6376 28.5902 32.6013 29.6054 33.6099 30.5737C33.8395 30.7941 34.2406 30.9715 34.5468 30.9491C35.2418 30.8985 35.6891 30.4197 35.9413 29.7878C36.1741 29.2046 35.9245 28.7644 35.501 28.3517C33.9699 26.8592 32.4568 25.3481 30.8773 23.7845ZM33.4049 32.0552C32.323 30.9974 31.2411 29.9397 30.1075 28.8313C28.2231 30.7938 26.3552 32.7032 24.5478 34.6682C24.3325 34.9023 24.3109 35.4883 24.4332 35.8267C24.8019 36.8465 26.0789 37.4037 27.0029 36.3431C28.0227 35.1725 29.1128 34.0633 30.1641 32.9361C30.2369 32.9704 30.2812 32.9789 30.3074 33.0054C31.3875 34.0997 32.4645 35.197 33.5451 36.2906C34.1603 36.9132 34.8146 36.9004 35.47 36.2607C36.1572 35.59 36.2114 34.8387 35.5973 34.2196C34.894 33.5107 34.1765 32.8158 33.4049 32.0552Z" fill="#6C5DC6"/>
<path d="M30.9071 23.8143C32.4568 25.3481 33.9699 26.8592 35.501 28.3517C35.9245 28.7644 36.1742 29.2046 35.9414 29.7878C35.6892 30.4197 35.2418 30.8985 34.5468 30.9492C34.2406 30.9715 33.8396 30.7941 33.6099 30.5737C32.6013 29.6054 31.6376 28.5902 30.663 27.5868C30.5251 27.4448 30.4171 27.2739 30.2617 27.0729C29.1321 28.2832 28.0897 29.4051 27.0414 30.5215C26.1852 31.4333 25.0312 31.2662 24.4638 30.1544C24.1997 29.6371 24.2248 29.1459 24.6359 28.7186C26.4366 26.8473 28.2436 24.982 30.1018 23.0591C30.3683 23.3084 30.6228 23.5464 30.9071 23.8143Z" fill="#FDFEFF"/>
<path d="M33.4351 32.0851C34.1766 32.8159 34.8941 33.5107 35.5973 34.2197C36.2114 34.8387 36.1573 35.59 35.47 36.2608C34.8146 36.9004 34.1604 36.9132 33.5452 36.2906C32.4645 35.197 31.3875 34.0997 30.3074 33.0055C30.2813 32.9789 30.2369 32.9704 30.1641 32.9361C29.1129 34.0633 28.0228 35.1726 27.003 36.3431C26.0789 37.4037 24.8019 36.8466 24.4332 35.8267C24.3109 35.4883 24.3325 34.9023 24.5478 34.6683C26.3553 32.7032 28.2231 30.7938 30.1075 28.8314C31.2411 29.9397 32.323 30.9975 33.4351 32.0851Z" fill="#FDFEFF"/>
</g>
<path d="M88.96 41.82C86.976 41.82 84.5227 41.628 81.6 41.244V37.436C85.2267 37.9907 87.7013 38.268 89.024 38.268C91.7973 38.268 93.184 37.5533 93.184 36.124V34.78C93.184 34.0973 92.9813 33.5747 92.576 33.212C92.192 32.8493 91.488 32.668 90.464 32.668H88.032C83.4667 32.668 81.184 30.8547 81.184 27.228V25.692C81.184 23.8787 81.9413 22.5453 83.456 21.692C84.9707 20.8387 87.3707 20.412 90.656 20.412C92.3627 20.412 94.528 20.5507 97.152 20.828V24.54C93.9307 24.156 91.712 23.964 90.496 23.964C88.8107 23.964 87.68 24.1027 87.104 24.38C86.4853 24.6787 86.176 25.148 86.176 25.788V27.26C86.176 28.348 87.0933 28.892 88.928 28.892H91.424C93.792 28.892 95.5093 29.3293 96.576 30.204C97.6427 31.0787 98.176 32.412 98.176 34.204V35.58C98.176 38.0547 97.2907 39.7293 95.52 40.604C94.6667 41.052 93.7173 41.3613 92.672 41.532C91.648 41.724 90.4107 41.82 88.96 41.82ZM101.454 26.012H105.87V27.548C106.148 26.8653 106.692 26.3853 107.502 26.108C108.313 25.8307 109.518 25.692 111.118 25.692C112.462 25.692 113.54 25.7987 114.35 26.012C115.182 26.2253 115.812 26.5667 116.238 27.036C116.644 27.5053 116.921 28.028 117.07 28.604C117.22 29.1587 117.294 29.9267 117.294 30.908V35.996C117.294 37.532 117.07 38.716 116.622 39.548C116.174 40.38 115.481 40.9667 114.542 41.308C113.625 41.6493 112.366 41.82 110.766 41.82C109.23 41.82 108.121 41.692 107.438 41.436C106.756 41.18 106.318 40.6787 106.126 39.932V48.156H101.454V26.012ZM109.326 38.908C110.244 38.908 110.937 38.844 111.406 38.716C111.876 38.588 112.196 38.364 112.366 38.044C112.537 37.724 112.622 37.244 112.622 36.604V30.876C112.622 30.172 112.548 29.6707 112.398 29.372C112.249 29.052 111.95 28.8387 111.502 28.732C111.054 28.6253 110.318 28.572 109.294 28.572C108.42 28.572 107.748 28.6467 107.278 28.796C106.83 28.9453 106.521 29.18 106.35 29.5C106.201 29.82 106.126 30.2787 106.126 30.876V36.604C106.126 37.244 106.201 37.724 106.35 38.044C106.521 38.364 106.83 38.588 107.278 38.716C107.726 38.844 108.409 38.908 109.326 38.908ZM125.338 41.82C123.888 41.82 122.8 41.692 122.074 41.436C121.37 41.1587 120.869 40.6787 120.57 39.996C120.293 39.292 120.154 38.2467 120.154 36.86C120.154 35.6227 120.304 34.652 120.602 33.948C120.922 33.244 121.424 32.7427 122.106 32.444C122.81 32.124 123.77 31.964 124.986 31.964H130.234V30.908C130.234 30.2467 130.138 29.756 129.946 29.436C129.776 29.116 129.445 28.892 128.954 28.764C128.485 28.636 127.77 28.572 126.81 28.572C125.488 28.572 123.674 28.7 121.37 28.956V26.012C123.056 25.7987 125.029 25.692 127.29 25.692C129.274 25.692 130.8 25.8413 131.866 26.14C132.954 26.4387 133.733 26.9507 134.202 27.676C134.672 28.4013 134.906 29.4573 134.906 30.844V41.5H130.33V40.092C129.968 40.7107 129.477 41.148 128.858 41.404C128.24 41.6813 127.066 41.82 125.338 41.82ZM127.162 38.908C128.101 38.908 128.773 38.876 129.178 38.812C129.477 38.7693 129.68 38.7053 129.786 38.62C129.914 38.5347 130.021 38.396 130.106 38.204C130.192 38.0547 130.234 37.8307 130.234 37.532V34.524H127.034C126.309 34.524 125.797 34.5773 125.498 34.684C125.2 34.7693 124.997 34.9613 124.89 35.26C124.784 35.5373 124.73 36.0387 124.73 36.764C124.73 37.468 124.784 37.9587 124.89 38.236C124.997 38.5133 125.2 38.6947 125.498 38.78C125.818 38.8653 126.373 38.908 127.162 38.908ZM146.569 41.82C145.758 41.82 145.118 41.7987 144.649 41.756C144.179 41.7347 143.603 41.6813 142.921 41.596C142.238 41.5107 141.673 41.3613 141.225 41.148C140.798 40.9347 140.35 40.6147 139.881 40.188C139.006 39.4627 138.569 38.2253 138.569 36.476V31.324C138.569 29.916 138.889 28.7427 139.529 27.804C139.763 27.4627 140.105 27.1533 140.553 26.876C141.022 26.5773 141.491 26.3427 141.961 26.172C142.345 26.044 142.857 25.9373 143.497 25.852C144.137 25.7667 144.702 25.7133 145.193 25.692H146.889C148.083 25.692 149.651 25.884 151.593 26.268V29.34C149.395 28.828 147.71 28.572 146.537 28.572C144.382 28.572 143.305 29.2973 143.305 30.748V36.444C143.305 38.0867 144.489 38.908 146.857 38.908C148.009 38.908 149.662 38.6733 151.817 38.204V41.276C149.875 41.6387 148.126 41.82 146.569 41.82ZM162.23 41.82C156.748 41.82 154.006 40.1453 154.006 36.796V31.228C154.006 29.2867 154.625 27.8787 155.862 27.004C157.121 26.1293 159.052 25.692 161.654 25.692C164.108 25.692 165.9 26.1187 167.03 26.972C168.182 27.804 168.758 29.2227 168.758 31.228V35.004H158.71V36.412C158.71 37.308 159.03 37.948 159.67 38.332C160.31 38.716 161.462 38.908 163.126 38.908C164.662 38.908 166.39 38.684 168.31 38.236V41.212C166.412 41.6173 164.385 41.82 162.23 41.82ZM164.31 32.348V30.108C164.31 29.596 164.097 29.212 163.67 28.956C163.265 28.7 162.572 28.572 161.59 28.572C160.46 28.572 159.702 28.7 159.318 28.956C158.913 29.2333 158.71 29.6173 158.71 30.108V32.348H164.31ZM178.121 41.82C176.457 41.82 174.42 41.66 172.009 41.34V38.236C174.975 38.684 177.033 38.908 178.185 38.908C179.167 38.908 179.892 38.812 180.361 38.62C180.831 38.428 181.065 38.076 181.065 37.564V36.604C181.065 36.0707 180.916 35.6973 180.617 35.484C180.319 35.2493 179.732 35.132 178.857 35.132H176.841C175.199 35.132 173.929 34.812 173.033 34.172C172.137 33.5107 171.689 32.5507 171.689 31.292V29.404C171.689 28.06 172.329 27.1107 173.609 26.556C174.889 25.98 176.82 25.692 179.401 25.692C180.425 25.692 182.26 25.788 184.905 25.98V28.956C181.577 28.7 179.7 28.572 179.273 28.572C178.015 28.572 177.193 28.6573 176.809 28.828C176.468 29.02 176.297 29.372 176.297 29.884V30.716C176.297 30.9933 176.436 31.2387 176.713 31.452C176.991 31.644 177.396 31.74 177.929 31.74H179.977C183.775 31.74 185.673 32.9773 185.673 35.452V37.404C185.673 38.1507 185.535 38.8013 185.257 39.356C184.98 39.9107 184.617 40.348 184.169 40.668C183.743 40.9667 183.188 41.2013 182.505 41.372C181.844 41.5427 181.151 41.66 180.425 41.724C179.764 41.788 178.996 41.82 178.121 41.82Z" fill="white"/>
<defs>
<clipPath id="clip0_5_18">
<rect width="60" height="60" fill="white"/>
</clipPath>
</defs>
</svg>
