<svg width="133" height="40" viewBox="0 0 133 40" fill="none" xmlns="http://www.w3.org/2000/svg">
<g clip-path="url(#clip0_26_11)">
<path d="M12.6145 30.3503C11.1047 30.3896 9.84717 29.8833 8.78769 28.8576C8.66986 28.7435 8.48131 28.6625 8.31648 28.6431C6.49735 28.4284 5.15732 27.5184 4.45107 25.8291C3.73781 24.1231 3.99771 22.4889 5.21774 21.095C5.70374 20.5398 6.37454 20.1463 6.92778 19.7058C6.98806 19.0154 6.95555 18.2561 7.13503 17.5507C7.61604 15.6602 9.42543 14.3657 11.3702 14.4464C11.6701 14.4588 11.81 14.3828 11.938 14.1079C13.6349 10.4656 17.7506 8.82602 21.4802 10.3534C23.1458 11.0355 24.4222 12.2084 25.2309 13.8425C25.3425 14.068 25.4445 14.1863 25.7277 14.1676C27.3006 14.0637 28.5457 14.6896 29.5165 15.9118C29.5868 16.0003 29.7281 16.061 29.8451 16.0795C32.6019 16.5169 34.5662 18.0177 35.5716 20.6036C36.6042 23.2595 36.1459 25.7635 34.278 27.9182C31.8247 30.7482 27.7054 31.1715 24.6687 28.984C24.5506 28.8989 24.43 28.8173 24.2917 28.7209C23.1552 29.7929 21.8118 30.3539 20.2512 30.3628C18.6902 30.3716 17.3411 29.8229 16.1849 28.7563C15.1898 29.7353 14.038 30.3102 12.6145 30.3503ZM20.5849 15.8563C20.4152 15.6976 20.2456 15.5389 20.0679 15.3727C18.8291 16.6546 17.6244 17.8982 16.424 19.1457C16.1499 19.4306 16.1332 19.758 16.3092 20.103C16.6875 20.8441 17.4568 20.9556 18.0276 20.3477C18.7265 19.6034 19.4214 18.8555 20.1745 18.0486C20.2781 18.1826 20.3501 18.2965 20.442 18.3912C21.0917 19.0601 21.7342 19.7369 22.4066 20.3824C22.5597 20.5294 22.8271 20.6476 23.0312 20.6328C23.4946 20.599 23.7928 20.2798 23.9609 19.8586C24.1161 19.4697 23.9497 19.1763 23.6674 18.9011C22.6466 17.9061 21.6379 16.8988 20.5849 15.8563ZM22.27 21.3701C21.5487 20.665 20.8274 19.9598 20.0717 19.2209C18.8154 20.5292 17.5702 21.8022 16.3652 23.1122C16.2217 23.2682 16.2073 23.6589 16.2888 23.8845C16.5347 24.5644 17.386 24.9358 18.002 24.2287C18.6819 23.4484 19.4086 22.7089 20.1094 21.9574C20.1579 21.9803 20.1875 21.986 20.205 22.0036C20.925 22.7331 21.643 23.4646 22.3635 24.1937C22.7736 24.6088 23.2098 24.6003 23.6467 24.1738C24.1049 23.7267 24.141 23.2258 23.7316 22.8131C23.2627 22.3405 22.7844 21.8772 22.27 21.3701Z" fill="#6C5DC6"/>
<path d="M20.6047 15.8762C21.6379 16.8988 22.6465 17.9061 23.6673 18.9011C23.9496 19.1763 24.1161 19.4697 23.9609 19.8585C23.7927 20.2798 23.4945 20.599 23.0312 20.6328C22.827 20.6476 22.5597 20.5294 22.4066 20.3824C21.7341 19.7369 21.0917 19.0601 20.442 18.3912C20.3501 18.2965 20.278 18.1826 20.1745 18.0486C19.4213 18.8555 18.7264 19.6034 18.0276 20.3477C17.4568 20.9556 16.6874 20.8441 16.3091 20.1029C16.1331 19.758 16.1498 19.4306 16.4239 19.1457C17.6244 17.8982 18.829 16.6546 20.0678 15.3727C20.2455 15.5389 20.4152 15.6976 20.6047 15.8762Z" fill="#FDFEFF"/>
<path d="M22.2902 21.39C22.7845 21.8772 23.2628 22.3404 23.7317 22.8131C24.1411 23.2258 24.105 23.7266 23.6468 24.1738C23.2099 24.6003 22.7737 24.6088 22.3636 24.1937C21.6431 23.4646 20.9251 22.7331 20.2051 22.0036C20.1876 21.9859 20.158 21.9803 20.1095 21.9574C19.4087 22.7088 18.682 23.4484 18.0021 24.2287C17.3861 24.9358 16.5348 24.5644 16.2889 23.8845C16.2074 23.6589 16.2218 23.2682 16.3653 23.1121C17.5703 21.8021 18.8155 20.5292 20.0718 19.2209C20.8275 19.9598 21.5488 20.665 22.2902 21.39Z" fill="#FDFEFF"/>
</g>
<path d="M58.72 29.24C57.232 29.24 55.392 29.096 53.2 28.808V25.952C55.92 26.368 57.776 26.576 58.768 26.576C60.848 26.576 61.888 26.04 61.888 24.968V23.96C61.888 23.448 61.736 23.056 61.432 22.784C61.144 22.512 60.616 22.376 59.848 22.376H58.024C54.6 22.376 52.888 21.016 52.888 18.296V17.144C52.888 15.784 53.456 14.784 54.592 14.144C55.728 13.504 57.528 13.184 59.992 13.184C61.272 13.184 62.896 13.288 64.864 13.496V16.28C62.448 15.992 60.784 15.848 59.872 15.848C58.608 15.848 57.76 15.952 57.328 16.16C56.864 16.384 56.632 16.736 56.632 17.216V18.32C56.632 19.136 57.32 19.544 58.696 19.544H60.568C62.344 19.544 63.632 19.872 64.432 20.528C65.232 21.184 65.632 22.184 65.632 23.528V24.56C65.632 26.416 64.968 27.672 63.64 28.328C63 28.664 62.288 28.896 61.504 29.024C60.736 29.168 59.808 29.24 58.72 29.24ZM68.0907 17.384H71.4027V18.536C71.6107 18.024 72.0187 17.664 72.6267 17.456C73.2347 17.248 74.1387 17.144 75.3387 17.144C76.3467 17.144 77.1547 17.224 77.7627 17.384C78.3867 17.544 78.8587 17.8 79.1787 18.152C79.4827 18.504 79.6907 18.896 79.8027 19.328C79.9147 19.744 79.9707 20.32 79.9707 21.056V24.872C79.9707 26.024 79.8027 26.912 79.4667 27.536C79.1307 28.16 78.6107 28.6 77.9067 28.856C77.2187 29.112 76.2747 29.24 75.0747 29.24C73.9227 29.24 73.0907 29.144 72.5787 28.952C72.0667 28.76 71.7387 28.384 71.5947 27.824V33.992H68.0907V17.384ZM73.9947 27.056C74.6827 27.056 75.2027 27.008 75.5547 26.912C75.9067 26.816 76.1467 26.648 76.2747 26.408C76.4027 26.168 76.4667 25.808 76.4667 25.328V21.032C76.4667 20.504 76.4107 20.128 76.2987 19.904C76.1867 19.664 75.9627 19.504 75.6267 19.424C75.2907 19.344 74.7387 19.304 73.9707 19.304C73.3147 19.304 72.8107 19.36 72.4587 19.472C72.1227 19.584 71.8907 19.76 71.7627 20C71.6507 20.24 71.5947 20.584 71.5947 21.032V25.328C71.5947 25.808 71.6507 26.168 71.7627 26.408C71.8907 26.648 72.1227 26.816 72.4587 26.912C72.7947 27.008 73.3067 27.056 73.9947 27.056ZM86.0037 29.24C84.9157 29.24 84.0997 29.144 83.5557 28.952C83.0277 28.744 82.6517 28.384 82.4277 27.872C82.2197 27.344 82.1157 26.56 82.1157 25.52C82.1157 24.592 82.2277 23.864 82.4517 23.336C82.6917 22.808 83.0677 22.432 83.5797 22.208C84.1077 21.968 84.8277 21.848 85.7397 21.848H89.6757V21.056C89.6757 20.56 89.6037 20.192 89.4597 19.952C89.3317 19.712 89.0837 19.544 88.7157 19.448C88.3637 19.352 87.8277 19.304 87.1077 19.304C86.1157 19.304 84.7557 19.4 83.0277 19.592V17.384C84.2917 17.224 85.7717 17.144 87.4677 17.144C88.9557 17.144 90.0997 17.256 90.8997 17.48C91.7157 17.704 92.2997 18.088 92.6517 18.632C93.0037 19.176 93.1797 19.968 93.1797 21.008V29H89.7477V27.944C89.4757 28.408 89.1077 28.736 88.6437 28.928C88.1797 29.136 87.2997 29.24 86.0037 29.24ZM87.3717 27.056C88.0757 27.056 88.5797 27.032 88.8837 26.984C89.1077 26.952 89.2597 26.904 89.3397 26.84C89.4357 26.776 89.5157 26.672 89.5797 26.528C89.6437 26.416 89.6757 26.248 89.6757 26.024V23.768H87.2757C86.7317 23.768 86.3477 23.808 86.1237 23.888C85.8997 23.952 85.7477 24.096 85.6677 24.32C85.5877 24.528 85.5477 24.904 85.5477 25.448C85.5477 25.976 85.5877 26.344 85.6677 26.552C85.7477 26.76 85.8997 26.896 86.1237 26.96C86.3637 27.024 86.7797 27.056 87.3717 27.056ZM101.927 29.24C101.319 29.24 100.839 29.224 100.487 29.192C100.135 29.176 99.7026 29.136 99.1906 29.072C98.6786 29.008 98.2546 28.896 97.9186 28.736C97.5986 28.576 97.2626 28.336 96.9106 28.016C96.2546 27.472 95.9266 26.544 95.9266 25.232V21.368C95.9266 20.312 96.1666 19.432 96.6466 18.728C96.8226 18.472 97.0786 18.24 97.4146 18.032C97.7666 17.808 98.1186 17.632 98.4706 17.504C98.7586 17.408 99.1426 17.328 99.6226 17.264C100.103 17.2 100.527 17.16 100.895 17.144H102.167C103.063 17.144 104.239 17.288 105.695 17.576V19.88C104.047 19.496 102.783 19.304 101.903 19.304C100.287 19.304 99.4786 19.848 99.4786 20.936V25.208C99.4786 26.44 100.367 27.056 102.143 27.056C103.007 27.056 104.247 26.88 105.863 26.528V28.832C104.407 29.104 103.095 29.24 101.927 29.24ZM113.673 29.24C109.561 29.24 107.505 27.984 107.505 25.472V21.296C107.505 19.84 107.969 18.784 108.897 18.128C109.841 17.472 111.289 17.144 113.241 17.144C115.081 17.144 116.425 17.464 117.273 18.104C118.137 18.728 118.569 19.792 118.569 21.296V24.128H111.033V25.184C111.033 25.856 111.273 26.336 111.753 26.624C112.233 26.912 113.097 27.056 114.345 27.056C115.497 27.056 116.793 26.888 118.233 26.552V28.784C116.809 29.088 115.289 29.24 113.673 29.24ZM115.233 22.136V20.456C115.233 20.072 115.073 19.784 114.753 19.592C114.449 19.4 113.929 19.304 113.193 19.304C112.345 19.304 111.777 19.4 111.489 19.592C111.185 19.8 111.033 20.088 111.033 20.456V22.136H115.233ZM125.591 29.24C124.343 29.24 122.815 29.12 121.007 28.88V26.552C123.231 26.888 124.775 27.056 125.639 27.056C126.375 27.056 126.919 26.984 127.271 26.84C127.623 26.696 127.799 26.432 127.799 26.048V25.328C127.799 24.928 127.687 24.648 127.463 24.488C127.239 24.312 126.799 24.224 126.143 24.224H124.631C123.399 24.224 122.447 23.984 121.775 23.504C121.103 23.008 120.767 22.288 120.767 21.344V19.928C120.767 18.92 121.247 18.208 122.207 17.792C123.167 17.36 124.615 17.144 126.551 17.144C127.319 17.144 128.695 17.216 130.679 17.36V19.592C128.183 19.4 126.775 19.304 126.455 19.304C125.511 19.304 124.895 19.368 124.607 19.496C124.351 19.64 124.223 19.904 124.223 20.288V20.912C124.223 21.12 124.327 21.304 124.535 21.464C124.743 21.608 125.047 21.68 125.447 21.68H126.983C129.831 21.68 131.255 22.608 131.255 24.464V25.928C131.255 26.488 131.151 26.976 130.943 27.392C130.735 27.808 130.463 28.136 130.127 28.376C129.807 28.6 129.391 28.776 128.879 28.904C128.383 29.032 127.863 29.12 127.319 29.168C126.823 29.216 126.247 29.24 125.591 29.24Z" fill="white"/>
<defs>
<clipPath id="clip0_26_11">
<rect width="40" height="40" fill="white"/>
</clipPath>
</defs>
</svg>
